<?xml version="1.0" encoding="UTF-8" standalone="no"?>
<svg
   xmlns:dc="http://purl.org/dc/elements/1.1/"
   xmlns:cc="http://creativecommons.org/ns#"
   xmlns:rdf="http://www.w3.org/1999/02/22-rdf-syntax-ns#"
   xmlns:svg="http://www.w3.org/2000/svg"
   xmlns="http://www.w3.org/2000/svg"
   xmlns:sodipodi="http://sodipodi.sourceforge.net/DTD/sodipodi-0.dtd"
   xmlns:inkscape="http://www.inkscape.org/namespaces/inkscape"
   viewBox="0 0 376 40"
   version="1.1"
   id="svg190"
   sodipodi:docname="logo.svg"
   width="376"
   height="40"
   inkscape:version="1.0 (4035a4fb49, 2020-05-01)">
  <metadata
     id="metadata194">
    <rdf:RDF>
      <cc:Work
         rdf:about="">
        <dc:format>image/svg+xml</dc:format>
        <dc:type
           rdf:resource="http://purl.org/dc/dcmitype/StillImage" />
        <dc:title>Logo</dc:title>
      </cc:Work>
    </rdf:RDF>
  </metadata>
  <sodipodi:namedview
     inkscape:pagecheckerboard="false"
     inkscape:document-rotation="0"
     pagecolor="#ffffff"
     bordercolor="#666666"
     borderopacity="1"
     objecttolerance="10"
     gridtolerance="10"
     guidetolerance="10"
     inkscape:pageopacity="0"
     inkscape:pageshadow="2"
     inkscape:window-width="2256"
     inkscape:window-height="1410"
     id="namedview192"
     showgrid="false"
     inkscape:zoom="2.4773429"
     inkscape:cx="142.83297"
     inkscape:cy="68.385948"
     inkscape:window-x="-11"
     inkscape:window-y="-11"
     inkscape:window-maximized="1"
     inkscape:current-layer="svg190"
     inkscape:snap-page="false"
     inkscape:snap-grids="true" />
  <title
     id="title167">Logo</title>
  <defs
     id="defs188">
    <rect
       id="rect873"
       height="27.257671"
       width="122.55548"
       y="41.614765"
       x="127.13311" />
    <path
       id="b"
       d="M 22.735,23.171 C 23.018,23.494 22.788,24 22.359,24 h -5.907 c -0.285,0 -0.556,-0.121 -0.745,-0.333 L 6.293,13.141 v 10.36 c 0,0.276 -0.224,0.5 -0.5,0.5 H 0.5 c -0.276,0 -0.5,-0.224 -0.5,-0.5 v -23 c 0,-0.276 0.224,-0.5 0.5,-0.5 h 5.293 c 0.276,0 0.5,0.224 0.5,0.5 v 9.815 l 9.141,-9.99 c 0.19,-0.207 0.457,-0.325 0.738,-0.325 h 5.762 c 0.437,0 0.664,0.521 0.366,0.841 l -9.851,10.563 10.287,11.767 z" />
    <path
       id="c"
       d="m 45.991,24 c -0.199,0 -0.38,-0.118 -0.459,-0.301 L 43.508,19.03 h -10.67 l -2.024,4.669 C 30.735,23.882 30.555,24 30.355,24 h -5.212 c -0.366,0 -0.608,-0.381 -0.453,-0.712 l 10.782,-23 C 35.554,0.112 35.731,0 35.925,0 h 4.358 c 0.194,0 0.37,0.112 0.453,0.287 l 10.815,23 C 51.707,23.619 51.465,24 51.099,24 Z M 34.856,14.332 h 6.635 l -3.317,-7.694 -3.317,7.694 z" />
    <path
       id="d"
       d="m 55.525,24 c -0.276,0 -0.5,-0.224 -0.5,-0.5 v -23 c 0,-0.276 0.224,-0.5 0.5,-0.5 h 5.293 c 0.276,0 0.5,0.224 0.5,0.5 v 18.428 h 9.759 c 0.276,0 0.5,0.224 0.5,0.5 V 23.5 c 0,0.276 -0.224,0.5 -0.5,0.5 z" />
    <path
       id="e"
       d="m 75.279,0.5 c 0,-0.276 0.224,-0.5 0.5,-0.5 h 9.315 c 2.667,0 4.959,0.477 6.874,1.43 1.938,0.953 3.42,2.338 4.446,4.153 1.026,1.793 1.539,3.926 1.539,6.4 0,2.496 -0.513,4.652 -1.539,6.468 -1.003,1.793 -2.474,3.166 -4.412,4.119 C 90.087,23.523 87.784,24 85.094,24 h -9.315 c -0.276,0 -0.5,-0.224 -0.5,-0.5 z m 9.37,18.462 c 2.371,0 4.138,-0.579 5.301,-1.736 1.163,-1.157 1.744,-2.905 1.744,-5.242 C 91.694,9.646 91.113,7.91 89.95,6.775 88.787,5.618 87.02,5.039 84.649,5.039 h -3.078 v 13.923 z" />
    <path
       id="f"
       d="m 102.913,24 c -0.276,0 -0.5,-0.224 -0.5,-0.5 v -23 c 0,-0.276 0.224,-0.5 0.5,-0.5 h 5.293 c 0.276,0 0.5,0.224 0.5,0.5 v 23 c 0,0.276 -0.224,0.5 -0.5,0.5 z" />
  </defs>
  <text
     id="text869"
     y="-57.636448"
     x="89.887894"
     style="font-size:18.6667px;line-height:1.25;font-family:sans-serif"
     xml:space="preserve"><tspan
       y="-57.636448"
       x="89.887894"
       id="tspan867"
       sodipodi:role="line" /></text>
  <text
     style="font-size:18.6667px;line-height:1.25;font-family:sans-serif;white-space:pre;shape-inside:url(#rect873);"
     id="text871"
     xml:space="preserve" />
  <g
     style="font-size:24px;line-height:1.25;font-family:sans-serif;white-space:pre;inline-size:438.381"
     id="text2800"
     transform="translate(142.1426,51.22802)"
     aria-label="ENJOY SAFE TRAVELS. Colombia.">
    <path
       id="path876"
       style="font-style:normal;font-variant:normal;font-weight:normal;font-stretch:normal;font-size:24px;font-family:'EB Garamond';-inkscape-font-specification:'EB Garamond';fill:#ff0000"
       d="m -136.87303,-24.019883 q -0.312,0 -0.504,-0.072 -0.192,-0.048 -0.192,-0.192 0,-0.288 0.792,-0.432 0.912,-0.168 1.344,-0.552 0.432,-0.384 0.432,-1.248 v -10.8 q 0,-0.864 -0.36,-1.224 -0.336,-0.36 -1.248,-0.528 -0.408,-0.072 -0.6,-0.192 -0.192,-0.12 -0.192,-0.288 0,-0.144 0.192,-0.192 0.192,-0.072 0.504,-0.072 0.912,0 1.536,0.024 0.648,0.024 1.248,0.048 0.624,0 1.464,0 0.792,0 1.656,0 0.888,-0.024 1.632,-0.024 0.816,-0.024 1.368,-0.024 0.576,-0.024 0.672,-0.024 0.12,0 0.264,0.048 0.144,0.048 0.168,0.168 0.12,0.672 0.24,1.344 0.12,0.648 0.12,1.128 0,0.216 -0.12,0.288 -0.096,0.072 -0.216,0.072 -0.12,0 -0.168,-0.048 -0.048,-0.072 -0.096,-0.192 -0.12,-0.408 -0.24,-0.768 -0.12,-0.384 -0.288,-0.552 -0.336,-0.384 -0.744,-0.504 -0.408,-0.144 -0.864,-0.144 h -3.144 q -0.192,0 -0.528,0.216 -0.336,0.216 -0.336,0.552 v 5.088 q 0,0.216 0.12,0.384 0.144,0.144 0.312,0.144 h 2.376 q 0.696,0 0.96,-0.24 0.264,-0.264 0.432,-0.936 0.144,-0.528 0.432,-0.528 0.096,0 0.192,0.096 0.12,0.096 0.12,0.288 0,0.096 -0.024,0.432 0,0.336 -0.024,0.696 -0.024,0.36 -0.024,0.552 0,0.24 0,0.648 0.024,0.384 0.024,0.744 0.024,0.36 0.024,0.456 0,0.168 -0.048,0.288 -0.024,0.12 -0.168,0.12 -0.36,0 -0.552,-0.768 -0.144,-0.552 -0.384,-0.816 -0.24,-0.264 -0.72,-0.264 h -2.232 q -0.408,0 -0.624,0.12 -0.192,0.096 -0.192,0.504 v 4.608 q 0,0.912 0.384,1.272 0.384,0.336 1.2,0.336 h 1.776 q 0.768,0 1.272,-0.072 0.528,-0.096 0.912,-0.336 0.384,-0.264 0.672,-0.696 0.312,-0.432 0.696,-1.152 0.072,-0.144 0.168,-0.24 0.096,-0.096 0.216,-0.072 0.12,0.024 0.192,0.12 0.072,0.072 0.072,0.216 0,0.216 -0.12,0.768 -0.12,0.528 -0.312,1.104 -0.168,0.576 -0.312,0.912 -0.072,0.168 -0.144,0.288 -0.048,0.12 -0.192,0.12 -1.152,0 -2.136,-0.024 -0.984,-0.024 -1.872,-0.048 -0.888,-0.024 -1.752,-0.048 -0.84,-0.024 -1.752,-0.024 -0.528,0 -0.912,0.024 -0.384,0.048 -0.792,0.072 -0.408,0.048 -1.056,0.048 z" />
    <path
       id="path878"
       style="font-style:normal;font-variant:normal;font-weight:normal;font-stretch:normal;font-size:24px;font-family:'EB Garamond';-inkscape-font-specification:'EB Garamond';fill:#ff0000"
       d="m -108.87816,-23.731883 q -0.216,0 -0.864,-0.36 -0.624,-0.36 -1.2,-1.152 -0.096,-0.12 -0.6,-0.72 -0.48,-0.6 -1.248,-1.488 -0.744,-0.912 -1.632,-1.968 -0.888,-1.056 -1.776,-2.112 -0.888,-1.056 -1.656,-1.944 -0.768,-0.912 -1.296,-1.512 -0.504,-0.624 -0.624,-0.768 -0.168,-0.216 -0.288,-0.288 -0.12,-0.096 -0.216,-0.096 -0.12,0 -0.168,0.192 -0.048,0.168 -0.048,0.312 -0.024,1.176 -0.048,2.712 -0.024,1.536 -0.048,3.168 -0.024,1.632 -0.024,3.12 0,0.648 0.312,1.2 0.336,0.552 1.224,0.72 0.408,0.072 0.6,0.168 0.192,0.096 0.192,0.264 0,0.144 -0.192,0.192 -0.192,0.072 -0.504,0.072 -0.648,0 -0.984,-0.048 -0.312,-0.024 -0.576,-0.048 -0.24,-0.024 -0.696,-0.024 -0.432,0 -0.672,0.024 -0.24,0.024 -0.552,0.048 -0.312,0.048 -0.96,0.048 -0.312,0 -0.504,-0.072 -0.192,-0.048 -0.192,-0.192 0,-0.168 0.192,-0.264 0.192,-0.096 0.6,-0.192 0.696,-0.192 1.008,-0.696 0.312,-0.528 0.384,-1.272 0.096,-0.912 0.192,-2.4 0.096,-1.512 0.168,-3.36 0.072,-1.872 0.072,-3.84 0,-1.272 -0.672,-1.824 -0.648,-0.552 -1.704,-0.888 -0.096,-0.048 -0.432,-0.192 -0.312,-0.168 -0.312,-0.384 0,-0.216 0.216,-0.264 0.216,-0.072 0.336,-0.072 0.696,0.024 1.128,0.048 0.432,0 0.768,0.024 0.336,0.024 0.744,0.048 0.408,0 1.056,0 0.216,0 0.336,0.12 0.12,0.12 0.24,0.288 0.096,0.144 0.624,0.816 0.552,0.648 1.344,1.656 0.816,0.984 1.776,2.16 0.96,1.152 1.92,2.328 0.96,1.152 1.776,2.16 0.816,0.984 1.344,1.632 0.552,0.648 0.648,0.768 0.096,0.096 0.264,0.288 0.192,0.192 0.336,0.192 0.216,0 0.24,-0.504 0,-0.336 0,-1.272 0.024,-0.96 0.024,-2.304 0.024,-1.368 0.024,-2.952 0,-1.584 0,-3.24 -0.024,-0.48 -0.504,-0.864 -0.48,-0.384 -0.888,-0.456 -0.408,-0.072 -0.744,-0.192 -0.336,-0.12 -0.336,-0.288 0,-0.144 0.336,-0.192 0.336,-0.072 0.648,-0.072 0.24,0 0.456,0 0.24,0 0.456,0 0.24,0 0.456,0 0.576,0 0.912,0 0.336,-0.024 0.72,-0.048 0.408,-0.024 1.128,-0.024 0.312,0 0.504,0.072 0.192,0.048 0.192,0.192 0,0.336 -0.792,0.48 -0.888,0.168 -1.176,0.432 -0.288,0.264 -0.336,0.864 0,0.12 -0.024,0.936 0,0.816 0,2.064 0,1.248 -0.024,2.688 0,1.44 0,2.88 0,1.416 0,2.544 0,0.576 0.024,1.056 0.048,0.456 0.072,0.792 0.024,0.312 0.024,0.48 0,0.384 -0.168,0.48 -0.144,0.12 -0.336,0.12 z" />
    <path
       id="path880"
       style="font-style:normal;font-variant:normal;font-weight:normal;font-stretch:normal;font-size:24px;font-family:'EB Garamond';-inkscape-font-specification:'EB Garamond';fill:#ff0000"
       d="m -105.06291,-19.339883 q -2.472,0 -2.472,-1.176 0,-0.408 0.336,-0.768 0.336,-0.36 0.6,-0.36 0.312,0 0.6,0.12 0.288,0.144 0.528,0.48 0.312,0.384 0.552,0.552 0.264,0.168 0.576,0.168 0.84,0 1.2,-1.032 0.384,-1.008 0.384,-2.76 v -13.248 q 0,-0.84 -0.36,-1.176 -0.36,-0.36 -1.224,-0.528 -0.792,-0.144 -0.792,-0.48 0,-0.144 0.192,-0.192 0.192,-0.072 0.504,-0.072 0.648,0 1.056,0.024 0.432,0.024 0.816,0.048 0.384,0 0.936,0 0.456,0 0.696,0 0.264,-0.024 0.576,-0.048 0.336,-0.024 0.984004,-0.024 0.312,0 0.504,0.072 0.192,0.048 0.192,0.192 0,0.168 -0.192,0.288 -0.192,0.12 -0.6,0.192 -0.888004,0.168 -1.128004,0.528 -0.24,0.336 -0.24,1.176 v 12.096 q 0,1.008 -0.312,1.896 -0.312,0.888 -0.768,1.584 -0.432,0.696 -0.816,1.152 -0.48,0.576 -1.056,0.936 -0.576,0.36 -1.272,0.36 z" />
    <path
       id="path882"
       style="font-style:normal;font-variant:normal;font-weight:normal;font-stretch:normal;font-size:24px;font-family:'EB Garamond';-inkscape-font-specification:'EB Garamond';fill:#ff0000"
       d="m -88.674656,-23.803883 q -1.584,0 -3.024,-0.552 -1.44,-0.576 -2.544,-1.608 -1.104,-1.056 -1.752,-2.496 -0.648,-1.464 -0.648,-3.24 0,-1.632 0.528,-3.12 0.528,-1.512 1.56,-2.688 1.032,-1.176 2.568,-1.872 1.536,-0.696 3.528,-0.696 1.584,0 3.024,0.576 1.44,0.552 2.544,1.608 1.104,1.032 1.752,2.496 0.648,1.44 0.648,3.216 0,1.608 -0.528,3.12 -0.528,1.512 -1.56,2.688 -1.032,1.176 -2.568,1.872 -1.536,0.696 -3.528,0.696 z m 0.36,-0.96 q 1.848,0 3.072,-0.768 1.224,-0.792 1.824,-2.184 0.624,-1.416 0.624,-3.288 0,-1.656 -0.384,-3.12 -0.384,-1.464 -1.152,-2.568 -0.744,-1.128 -1.872,-1.752 -1.128,-0.624 -2.64,-0.624 -1.8,0 -3.024,0.768 -1.224,0.768 -1.848,2.16 -0.624,1.368 -0.624,3.24 0,1.68 0.36,3.144 0.384,1.464 1.128,2.592 0.768,1.128 1.896,1.776 1.128,0.624 2.64,0.624 z" />
    <path
       id="path884"
       style="font-style:normal;font-variant:normal;font-weight:normal;font-stretch:normal;font-size:24px;font-family:'EB Garamond';-inkscape-font-specification:'EB Garamond';fill:#ff0000"
       d="m -75.495281,-24.019883 q -0.312,0 -0.504,-0.072 -0.192,-0.048 -0.192,-0.192 0,-0.168 0.192,-0.264 0.192,-0.096 0.6,-0.168 0.912,-0.168 1.392,-0.648 0.48,-0.504 0.48,-1.368 v -3.552 q 0,-0.48 -0.264,-1.032 -0.24,-0.576 -0.336,-0.744 l -2.808,-4.608 q -0.168,-0.288 -0.528,-0.792 -0.36,-0.528 -0.792,-0.984 -0.408,-0.456 -0.816,-0.576 -0.384,-0.12 -0.6,-0.24 -0.192,-0.12 -0.192,-0.288 0,-0.144 0.192,-0.192 0.192,-0.072 0.504,-0.072 0.552,0 1.272,0.048 0.72,0.024 1.536,0.024 0.552,0 1.032,-0.024 0.504,-0.024 0.888,-0.024 0.312,0 0.504,0.072 0.192,0.048 0.192,0.192 0,0.168 -0.192,0.288 -0.192,0.096 -0.6,0.192 -0.336,0.096 -0.552,0.216 -0.216,0.12 -0.216,0.384 0,0.312 0.312,0.864 l 2.208,4.08 q 0.48,0.912 0.672,0.912 0.144,0 0.312,-0.192 0.168,-0.216 0.48,-0.72 0.552,-0.84 0.984,-1.608 0.432,-0.768 1.032,-1.848 0.24,-0.408 0.336,-0.696 0.096,-0.312 0.096,-0.528 0,-0.456 -0.336,-0.624 -0.312,-0.168 -0.648,-0.216 -0.24,-0.048 -0.528,-0.168 -0.264,-0.144 -0.264,-0.312 0,-0.144 0.192,-0.192 0.192,-0.072 0.504,-0.072 0.552,0 0.912,0.024 0.36,0 0.888,0 0.744,0 1.416,-0.024 0.672,-0.048 1.08,-0.048 0.312,0 0.504,0.072 0.192,0.048 0.192,0.192 0,0.168 -0.384,0.312 -0.384,0.144 -0.888,0.288 -0.624,0.168 -1.056,0.696 -0.408,0.504 -1.056,1.488 -0.48,0.744 -0.816,1.248 -0.312,0.504 -0.6,0.936 -0.264,0.432 -0.552,0.912 -0.288,0.456 -0.696,1.128 -0.312,0.504 -0.432,0.816 -0.12,0.312 -0.144,0.6 -0.024,0.264 -0.024,0.744 v 3.648 q 0,0.816 0.504,1.344 0.504,0.504 1.392,0.672 0.408,0.072 0.6,0.168 0.192,0.096 0.192,0.264 0,0.144 -0.192,0.192 -0.192,0.072 -0.504,0.072 -0.648,0 -1.08,-0.048 -0.408,-0.024 -0.792,-0.048 -0.384,-0.024 -0.936,-0.024 -0.6,0 -1.056,0.024 -0.432,0.024 -0.912,0.048 -0.456,0.048 -1.104,0.048 z" />
    <path
       id="path886"
       style="font-style:normal;font-variant:normal;font-weight:normal;font-stretch:normal;font-size:24px;font-family:'EB Garamond';-inkscape-font-specification:'EB Garamond';fill:#ff0000"
       d="m -56.311031,-23.755883 q -1.008,0 -1.872,-0.312 -0.84,-0.288 -1.512,-0.84 -0.096,-0.096 -0.192,-0.216 -0.072,-0.12 -0.12,-0.264 -0.12,-0.48 -0.168,-1.248 -0.024,-0.768 -0.072,-1.272 0,-0.168 0.144,-0.24 0.144,-0.096 0.336,-0.096 0.12,0 0.24,0.072 0.12,0.048 0.144,0.192 0.48,1.848 1.416,2.64 0.96,0.792 1.992,0.792 0.84,0 1.488,-0.36 0.648,-0.36 1.008,-1.008 0.384,-0.672 0.384,-1.56 0,-0.984 -0.336,-1.584 -0.312,-0.624 -0.912,-1.08 -0.6,-0.456 -1.464,-0.984 -0.936,-0.6 -1.848,-1.2 -0.912,-0.624 -1.512,-1.416 -0.6,-0.816 -0.6,-1.968 0,-1.224 0.552,-2.208 0.552,-0.984 1.656,-1.56 1.128,-0.6 2.808,-0.6 0.864,0 1.488,0.192 0.648,0.168 1.032,0.336 0.192,0.072 0.312,0.24 0.144,0.168 0.192,0.36 0.144,0.504 0.312,1.152 0.168,0.648 0.168,1.224 0,0.264 -0.36,0.264 -0.216,0 -0.432,-0.096 -0.192,-0.096 -0.24,-0.24 -0.504,-1.272 -1.176,-1.944 -0.672,-0.672 -1.704,-0.672 -0.72,0 -1.344,0.264 -0.624,0.264 -1.032,0.864 -0.384,0.6 -0.384,1.608 0,0.72 0.456,1.32 0.48,0.576 1.248,1.104 0.768,0.528 1.656,1.08 0.84,0.504 1.632,1.104 0.816,0.6 1.32,1.44 0.528,0.816 0.528,2.016 0,1.416 -0.648,2.496 -0.648,1.056 -1.824,1.632 -1.176,0.576 -2.76,0.576 z" />
    <path
       id="path888"
       style="font-style:normal;font-variant:normal;font-weight:normal;font-stretch:normal;font-size:24px;font-family:'EB Garamond';-inkscape-font-specification:'EB Garamond';fill:#ff0000"
       d="m -49.402781,-24.019883 q -0.312,0 -0.504,-0.096 -0.192,-0.072 -0.192,-0.216 0,-0.168 0.192,-0.288 0.216,-0.144 0.6,-0.264 0.624,-0.192 1.152,-0.576 0.528,-0.384 0.912,-1.272 0.672,-1.536 1.224,-2.88 0.576,-1.344 1.08,-2.64 0.504,-1.296 1.032,-2.688 0.552,-1.416 1.152,-3.072 0.12,-0.336 0.216,-0.672 0.096,-0.336 0.12,-0.72 0.216,-0.072 0.432,-0.144 0.216,-0.072 0.432,-0.216 0.216,-0.144 0.288,-0.432 0.096,-0.288 0.168,-0.384 0.024,-0.024 0.048,-0.024 0.048,0 0.072,0.048 0.048,0.096 0.072,0.24 0.048,0.144 0.096,0.288 0.576,1.824 1.2,3.72 0.624,1.896 1.2,3.672 0.6,1.752 1.08,3.168 0.504,1.392 0.792,2.256 0.336,0.96 0.72,1.44 0.384,0.48 0.792,0.672 0.432,0.192 0.912,0.288 0.408,0.072 0.6,0.24 0.192,0.144 0.192,0.312 0,0.144 -0.192,0.192 -0.192,0.048 -0.504,0.048 -0.336,0 -0.912,-0.048 -0.576,-0.024 -1.224,-0.072 -0.648,-0.024 -1.2,-0.024 -0.456,0 -0.936,0 -0.48,0 -0.888,0.024 -0.408,0 -0.696,0 -0.312,0 -0.504,-0.072 -0.192,-0.072 -0.192,-0.216 0,-0.168 0.24,-0.288 0.24,-0.12 0.552,-0.168 0.792,-0.12 1.128,-0.408 0.336,-0.288 0.336,-0.672 0,-0.36 -0.168,-1.032 -0.144,-0.696 -0.36,-1.464 -0.216,-0.792 -0.408,-1.392 -0.048,-0.192 -0.192,-0.216 -0.12,-0.048 -0.456,-0.048 h -4.536 q -0.096,0 -0.216,0.096 -0.096,0.072 -0.192,0.336 -0.072,0.24 -0.24,0.768 -0.168,0.504 -0.336,1.08 -0.168,0.576 -0.288,1.032 -0.12,0.456 -0.12,0.576 0,0.528 0.408,0.888 0.408,0.336 0.984,0.48 0.792,0.216 0.792,0.48 0,0.144 -0.192,0.216 -0.192,0.048 -0.504,0.048 -0.312,0 -0.912,-0.024 -0.6,-0.024 -1.272,-0.024 -0.792,0 -1.536,0.072 -0.744,0.072 -1.344,0.072 z m 5.616,-6.888 h 3.72 q 0.336,0 0.336,-0.12 0,-0.048 -0.024,-0.096 0,-0.072 -0.024,-0.144 l -1.872,-5.856 q -0.144,-0.432 -0.216,-0.432 -0.048,0 -0.192,0.408 l -2.184,5.88 q -0.048,0.144 -0.048,0.192 0,0.12 0.12,0.144 0.144,0.024 0.384,0.024 z" />
    <path
       id="path890"
       style="font-style:normal;font-variant:normal;font-weight:normal;font-stretch:normal;font-size:24px;font-family:'EB Garamond';-inkscape-font-specification:'EB Garamond';fill:#ff0000"
       d="m -32.041031,-24.019883 q -0.312,0 -0.504,-0.072 -0.192,-0.048 -0.192,-0.192 0,-0.288 0.792,-0.432 0.912,-0.168 1.248,-0.552 0.36,-0.384 0.36,-1.272 v -10.128 q 0,-1.08 -0.288,-1.656 -0.264,-0.576 -1.176,-0.744 -0.408,-0.072 -0.6,-0.192 -0.192,-0.12 -0.192,-0.288 0,-0.144 0.192,-0.192 0.192,-0.072 0.504,-0.072 0.888,0 1.488,0.024 0.624,0.024 1.224,0.048 0.6,0 1.416,0 0.696,0 1.488,0 0.792,0 1.536,0 0.768,0 1.344,-0.12 0.6,-0.12 1.032,-0.12 0.12,0 0.264,0.048 0.144,0.048 0.168,0.168 0.048,0.264 0.072,0.792 0.024,0.504 0.024,0.984 0.024,0.48 0.024,0.648 0,0.504 -0.216,0.504 -0.12,0 -0.216,-0.072 -0.096,-0.096 -0.144,-0.216 -0.096,-0.408 -0.24,-0.696 -0.144,-0.312 -0.312,-0.48 -0.336,-0.384 -0.744,-0.504 -0.408,-0.144 -0.864,-0.144 h -3.048 q -0.552,0 -0.672,0.36 -0.12,0.36 -0.144,0.84 -0.024,0.456 -0.024,1.128 0,0.648 0,1.272 0,0.6 0,1.224 0,0.624 0.024,1.056 0,0.192 0.024,0.36 0.048,0.168 0.216,0.168 0.768,0 1.56,-0.024 0.792,-0.048 1.224,-0.048 0.528,0 0.912,-0.288 0.384,-0.288 0.552,-0.696 0.048,-0.096 0.192,-0.24 0.144,-0.168 0.24,-0.168 0.096,0 0.216,0.12 0.12,0.096 0.096,0.264 -0.024,0.408 -0.048,0.72 -0.024,0.312 -0.024,0.6 0,0.36 0.024,0.744 0.024,0.36 0.048,0.888 0,0.168 -0.048,0.288 -0.024,0.12 -0.168,0.12 -0.24,0 -0.384,-0.216 -0.12,-0.216 -0.168,-0.336 -0.168,-0.552 -0.504,-0.744 -0.336,-0.216 -0.624,-0.216 -0.312,0 -0.624,0 -0.288,-0.024 -0.576,-0.024 -0.408,0 -0.792,0 -0.384,0 -0.768,0.048 -0.24,0.024 -0.408,0.168 -0.168,0.12 -0.168,0.432 0,1.104 0,2.256 0.024,1.128 0.072,2.328 0.048,0.768 0.36,1.224 0.336,0.456 1.224,0.624 0.408,0.072 0.6,0.168 0.192,0.096 0.192,0.264 0,0.144 -0.192,0.192 -0.192,0.072 -0.504,0.072 -0.648,0 -1.008,-0.048 -0.336,-0.048 -0.624,-0.072 -0.264,-0.048 -0.72,-0.048 -0.576,0 -1.032,0.048 -0.432,0.024 -0.888,0.072 -0.456,0.048 -1.104,0.048 z" />
    <path
       id="path892"
       style="font-style:normal;font-variant:normal;font-weight:normal;font-stretch:normal;font-size:24px;font-family:'EB Garamond';-inkscape-font-specification:'EB Garamond';fill:#ff0000"
       d="m -19.591781,-24.019883 q -0.312,0 -0.504,-0.072 -0.192,-0.048 -0.192,-0.192 0,-0.288 0.792,-0.432 0.912,-0.168 1.344,-0.552 0.432,-0.384 0.432,-1.248 v -10.8 q 0,-0.864 -0.36,-1.224 -0.336,-0.36 -1.248,-0.528 -0.408,-0.072 -0.6,-0.192 -0.192,-0.12 -0.192,-0.288 0,-0.144 0.192,-0.192 0.192,-0.072 0.504,-0.072 0.912,0 1.536,0.024 0.648,0.024 1.248,0.048 0.624,0 1.464,0 0.792,0 1.656,0 0.888,-0.024 1.632,-0.024 0.816,-0.024 1.368,-0.024 0.5759998,-0.024 0.6719998,-0.024 0.1199999,0 0.2639999,0.048 0.1440001,0.048 0.168,0.168 0.12,0.672 0.24,1.344 0.1200001,0.648 0.1200001,1.128 0,0.216 -0.1200001,0.288 -0.096,0.072 -0.216,0.072 -0.12,0 -0.168,-0.048 -0.048,-0.072 -0.096,-0.192 -0.12,-0.408 -0.2399999,-0.768 -0.1199998,-0.384 -0.2879998,-0.552 -0.336,-0.384 -0.744,-0.504 -0.408,-0.144 -0.864,-0.144 h -3.144 q -0.192,0 -0.528,0.216 -0.336,0.216 -0.336,0.552 v 5.088 q 0,0.216 0.12,0.384 0.144,0.144 0.312,0.144 h 2.376 q 0.696,0 0.96,-0.24 0.264,-0.264 0.432,-0.936 0.144,-0.528 0.432,-0.528 0.096,0 0.192,0.096 0.12,0.096 0.12,0.288 0,0.096 -0.024,0.432 0,0.336 -0.024,0.696 -0.024,0.36 -0.024,0.552 0,0.24 0,0.648 0.024,0.384 0.024,0.744 0.024,0.36 0.024,0.456 0,0.168 -0.048,0.288 -0.024,0.12 -0.168,0.12 -0.36,0 -0.552,-0.768 -0.144,-0.552 -0.384,-0.816 -0.24,-0.264 -0.72,-0.264 h -2.232 q -0.408,0 -0.624,0.12 -0.192,0.096 -0.192,0.504 v 4.608 q 0,0.912 0.384,1.272 0.384,0.336 1.2,0.336 h 1.776 q 0.768,0 1.272,-0.072 0.528,-0.096 0.912,-0.336 0.3839997,-0.264 0.6719997,-0.696 0.312,-0.432 0.696,-1.152 0.072,-0.144 0.168,-0.24 0.096,-0.096 0.2160001,-0.072 0.12,0.024 0.192,0.12 0.072,0.072 0.072,0.216 0,0.216 -0.1199999,0.768 -0.12,0.528 -0.312,1.104 -0.1680001,0.576 -0.3120001,0.912 -0.072,0.168 -0.144,0.288 -0.048,0.12 -0.192,0.12 -1.1519998,0 -2.1359998,-0.024 -0.984,-0.024 -1.872,-0.048 -0.888,-0.024 -1.752,-0.048 -0.84,-0.024 -1.752,-0.024 -0.528,0 -0.912,0.024 -0.384,0.048 -0.792,0.072 -0.408,0.048 -1.056,0.048 z" />
    <path
       id="path894"
       style="font-style:normal;font-variant:normal;font-weight:normal;font-stretch:normal;font-size:24px;font-family:'EB Garamond';-inkscape-font-specification:'EB Garamond';fill:#ff0000"
       d="m 2.2883438,-24.019883 q -0.3120001,0 -0.5040001,-0.072 -0.192,-0.048 -0.192,-0.192 0,-0.168 0.192,-0.264 0.192,-0.096 0.6000001,-0.168 0.912,-0.168 1.392,-0.576 0.4799999,-0.432 0.4799999,-1.296 v -9.312 q 0,-1.104 -0.048,-1.68 -0.048,-0.6 -0.1679999,-0.84 -0.096,-0.24 -0.288,-0.264 -0.336,-0.072 -0.72,-0.072 -0.36,-0.024 -0.984,-0.024 H 0.92034375 q -0.576,0 -1.152,0.24 -0.552,0.216 -0.81600005,0.696 -0.072,0.12 -0.2399999,0.36 -0.168,0.216 -0.36,0.384 -0.192,0.168 -0.3840001,0.168 -0.096,0 -0.1439999,-0.096 -0.024,-0.096 -0.024,-0.216 0,-0.24 0.12,-0.48 0.3360001,-0.696 0.4800001,-1.224 0.168,-0.552 0.264,-1.296 0.048,-0.408 0.168,-0.48 0.1439999,-0.072 0.23999995,-0.072 0.096,0 0.288,0.288 0.216,0.288 0.312,0.48 0.144,0.24 0.648,0.36 0.528,0.12 1.03200005,0.12 h 8.448 q 0.8400001,0 1.3680001,-0.096 0.528,-0.096 0.912,-0.264 0.288,-0.144 0.456,-0.312 0.192,-0.168 0.48,-0.168 0.072,0 0.12,0.192 0.048,0.168 0.048,0.36 0,0.12 -0.048,0.336 -0.024,0.216 -0.048,0.336 -0.072,0.432 -0.144,0.624 -0.048,0.192 -0.072,0.336 -0.024,0.144 -0.024,0.456 v 0.288 q 0,0.216 -0.096,0.504 -0.096,0.264 -0.288,0.264 -0.168,0 -0.264,-0.264 -0.096,-0.264 -0.192,-0.72 -0.096,-0.504 -0.576,-0.792 -0.48,-0.312 -1.6320001,-0.312 H 7.3763437 q -0.5279999,0 -0.7919999,0.144 -0.2640001,0.144 -0.3360001,0.72 -0.072,0.576 -0.072,1.896 v 9.432 q 0,0.864 0.504,1.296 0.5039999,0.408 1.392,0.576 0.408,0.072 0.6,0.168 0.192,0.096 0.192,0.264 0,0.144 -0.192,0.192 -0.192,0.072 -0.504,0.072 -0.648,0 -1.0800001,-0.048 -0.4079999,-0.024 -0.792,-0.048 -0.384,-0.024 -0.936,-0.024 -0.5999999,0 -1.056,0.024 -0.4319999,0.024 -0.9119999,0.048 -0.4560001,0.048 -1.1039999,0.048 z" />
    <path
       id="path896"
       style="font-style:normal;font-variant:normal;font-weight:normal;font-stretch:normal;font-size:24px;font-family:'EB Garamond';-inkscape-font-specification:'EB Garamond';fill:#ff0000"
       d="m 28.518469,-23.635883 q -0.672,0 -1.272,-0.12 -0.6,-0.096 -1.104,-0.384 -0.504,-0.288 -0.936,-0.792 -0.576,-0.72 -1.104,-1.368 -0.528,-0.672 -1.128,-1.536 -0.576,-0.864 -1.416,-2.208 -0.36,-0.6 -1.032,-0.936 -0.528,-0.264 -1.056,-0.36 -0.504,-0.12 -0.84,-0.144 -0.192,-0.024 -0.288,0.12 -0.072,0.144 -0.072,0.36 v 4.224 q 0,0.768 0.36,1.344 0.36,0.552 1.248,0.72 0.408,0.072 0.6,0.168 0.192,0.096 0.192,0.264 0,0.144 -0.192,0.192 -0.192,0.072 -0.504,0.072 -0.648,0 -1.008,-0.048 -0.336,-0.048 -0.624,-0.072 -0.264,-0.048 -0.72,-0.048 -0.6,0 -1.08,0.048 -0.456,0.024 -0.936,0.072 -0.456,0.048 -1.104,0.048 -0.312,0 -0.504,-0.072 -0.192,-0.048 -0.192,-0.192 0,-0.288 0.792,-0.432 0.912,-0.168 1.32,-0.552 0.432,-0.384 0.432,-1.272 v -10.224 q 0,-0.912 -0.096,-1.368 -0.072,-0.48 -0.384,-0.672 -0.288,-0.192 -0.984,-0.264 -0.408,-0.048 -0.6,-0.168 -0.192,-0.144 -0.192,-0.312 0,-0.144 0.192,-0.192 0.192,-0.072 0.504,-0.072 0.648,0 0.96,0 0.336,0 0.624,0.024 0.288,0 0.768,0 0.456,0 0.816,-0.024 0.36,-0.048 0.792,-0.072 0.456,-0.024 1.152,-0.024 2.64,0 4.008,0.984 1.392,0.984 1.392,2.952 0,1.08 -0.432,1.872 -0.432,0.768 -1.08,1.296 -0.648,0.528 -1.32,0.864 -0.096,0.024 -0.096,0.12 0.024,0.072 0.096,0.192 0.744,1.128 1.416,2.136 0.696,1.008 1.512,1.968 0.816,0.96 1.944,1.992 0.624,0.552 1.272,0.672 0.648,0.12 1.488,0.12 0.36,0 0.36,0.264 0,0.36 -0.36,0.528 -0.36,0.192 -0.816,0.24 -0.456,0.072 -0.768,0.072 z m -8.976,-8.4 q 1.104,0 1.896,-0.504 0.816,-0.504 1.248,-1.32 0.456,-0.816 0.456,-1.728 0,-0.984 -0.264,-1.8 -0.24,-0.816 -1.008,-1.296 -0.744,-0.504 -2.256,-0.504 -0.768,0 -1.008,0.504 -0.24,0.48 -0.288,1.728 -0.024,0.6 -0.048,1.632 0,1.008 0,2.448 0,0.6 0.336,0.72 0.336,0.12 0.936,0.12 z" />
    <path
       id="path898"
       style="font-style:normal;font-variant:normal;font-weight:normal;font-stretch:normal;font-size:24px;font-family:'EB Garamond';-inkscape-font-specification:'EB Garamond';fill:#ff0000"
       d="m 31.925344,-24.019883 q -0.312,0 -0.504,-0.096 -0.192,-0.072 -0.192,-0.216 0,-0.168 0.192,-0.288 0.216,-0.144 0.6,-0.264 0.624,-0.192 1.152,-0.576 0.528,-0.384 0.912,-1.272 0.672,-1.536 1.224,-2.88 0.576,-1.344 1.08,-2.64 0.504,-1.296 1.032,-2.688 0.552,-1.416 1.152,-3.072 0.12,-0.336 0.216,-0.672 0.096,-0.336 0.12,-0.72 0.216,-0.072 0.432,-0.144 0.216,-0.072 0.432,-0.216 0.216,-0.144 0.288,-0.432 0.096,-0.288 0.168,-0.384 0.024,-0.024 0.048,-0.024 0.048,0 0.072,0.048 0.048,0.096 0.072,0.24 0.048,0.144 0.096,0.288 0.576,1.824 1.2,3.72 0.624,1.896 1.2,3.672 0.6,1.752 1.08,3.168 0.504,1.392 0.792,2.256 0.336,0.96 0.72,1.44 0.384,0.48 0.792,0.672 0.432,0.192 0.912,0.288 0.408,0.072 0.6,0.24 0.192,0.144 0.192,0.312 0,0.144 -0.192,0.192 -0.192,0.048 -0.504,0.048 -0.336,0 -0.912,-0.048 -0.576,-0.024 -1.224,-0.072 -0.648,-0.024 -1.2,-0.024 -0.456,0 -0.936,0 -0.48,0 -0.888,0.024 -0.408,0 -0.696,0 -0.312,0 -0.504,-0.072 -0.192,-0.072 -0.192,-0.216 0,-0.168 0.24,-0.288 0.24,-0.12 0.552,-0.168 0.792,-0.12 1.128,-0.408 0.336,-0.288 0.336,-0.672 0,-0.36 -0.168,-1.032 -0.144,-0.696 -0.36,-1.464 -0.216,-0.792 -0.408,-1.392 -0.048,-0.192 -0.192,-0.216 -0.12,-0.048 -0.456,-0.048 h -4.536 q -0.096,0 -0.216,0.096 -0.096,0.072 -0.192,0.336 -0.072,0.24 -0.24,0.768 -0.168,0.504 -0.336,1.08 -0.168,0.576 -0.288,1.032 -0.12,0.456 -0.12,0.576 0,0.528 0.408,0.888 0.408,0.336 0.984,0.48 0.792,0.216 0.792,0.48 0,0.144 -0.192,0.216 -0.192,0.048 -0.504,0.048 -0.312,0 -0.912,-0.024 -0.6,-0.024 -1.272,-0.024 -0.792,0 -1.536,0.072 -0.744,0.072 -1.344,0.072 z m 5.616,-6.888 h 3.72 q 0.336,0 0.336,-0.12 0,-0.048 -0.024,-0.096 0,-0.072 -0.024,-0.144 l -1.872,-5.856 q -0.144,-0.432 -0.216,-0.432 -0.048,0 -0.192,0.408 l -2.184,5.88 q -0.048,0.144 -0.048,0.192 0,0.12 0.12,0.144 0.144,0.024 0.384,0.024 z" />
    <path
       id="path900"
       style="font-style:normal;font-variant:normal;font-weight:normal;font-stretch:normal;font-size:24px;font-family:'EB Garamond';-inkscape-font-specification:'EB Garamond';fill:#ff0000"
       d="m 52.128094,-23.851883 q -0.192,0 -0.264,-0.168 -0.096,-0.264 -0.24,-0.696 -0.144,-0.456 -0.264,-0.768 l -4.392,-11.784 q -0.24,-0.672 -0.648,-1.128 -0.408,-0.456 -1.032,-0.624 -0.384,-0.12 -0.6,-0.24 -0.192,-0.12 -0.192,-0.288 0,-0.144 0.192,-0.192 0.192,-0.072 0.504,-0.072 0.384,0 0.84,0.024 0.48,0.024 1.008,0.048 0.528,0 1.08,0 0.48,0 0.936,0 0.48,-0.024 0.864,-0.024 0.408,-0.024 0.648,-0.024 0.312,0 0.504,0.072 0.192,0.048 0.192,0.192 0,0.168 -0.192,0.312 -0.192,0.12 -0.6,0.168 -0.672,0.072 -1.128,0.312 -0.432,0.216 -0.432,0.624 0,0.408 0.096,0.72 0.12,0.288 0.168,0.456 l 3.456,9.12 q 0.048,0.096 0.12,0.12 0.072,0.024 0.144,-0.144 l 3.288,-8.64 q 0.48,-1.272 0.048,-1.848 -0.408,-0.6 -1.176,-0.696 -0.36,-0.048 -0.576,-0.168 -0.216,-0.144 -0.216,-0.312 0,-0.144 0.192,-0.192 0.192,-0.072 0.504,-0.072 0.312,0 0.696,0 0.384,0 0.792,0.024 0.432,0 0.888,0 0.696,0 1.488,-0.024 0.792,-0.048 1.248,-0.048 0.312,0 0.504,0.072 0.192,0.048 0.192,0.192 0,0.168 -0.192,0.288 -0.192,0.096 -0.6,0.192 -0.888,0.192 -1.488,0.816 -0.6,0.624 -0.864,1.272 l -4.512,10.944 q -0.048,0.12 -0.192,0.504 -0.12,0.36 -0.264,0.792 -0.144,0.432 -0.288,0.72 -0.024,0.072 -0.096,0.12 -0.072,0.048 -0.144,0.048 z" />
    <path
       id="path902"
       style="font-style:normal;font-variant:normal;font-weight:normal;font-stretch:normal;font-size:24px;font-family:'EB Garamond';-inkscape-font-specification:'EB Garamond';fill:#ff0000"
       d="m 62.205094,-24.019883 q -0.312,0 -0.504,-0.072 -0.192,-0.048 -0.192,-0.192 0,-0.288 0.792,-0.432 0.912,-0.168 1.344,-0.552 0.432,-0.384 0.432,-1.248 v -10.8 q 0,-0.864 -0.36,-1.224 -0.336,-0.36 -1.248,-0.528 -0.408,-0.072 -0.6,-0.192 -0.192,-0.12 -0.192,-0.288 0,-0.144 0.192,-0.192 0.192,-0.072 0.504,-0.072 0.912,0 1.536,0.024 0.648,0.024 1.248,0.048 0.624,0 1.464,0 0.792,0 1.656,0 0.888,-0.024 1.632,-0.024 0.816,-0.024 1.368,-0.024 0.576,-0.024 0.672,-0.024 0.12,0 0.264,0.048 0.144,0.048 0.168,0.168 0.12,0.672 0.24,1.344 0.12,0.648 0.12,1.128 0,0.216 -0.12,0.288 -0.096,0.072 -0.216,0.072 -0.12,0 -0.168,-0.048 -0.048,-0.072 -0.096,-0.192 -0.12,-0.408 -0.24,-0.768 -0.12,-0.384 -0.288,-0.552 -0.336,-0.384 -0.744,-0.504 -0.408,-0.144 -0.864,-0.144 h -3.144 q -0.192,0 -0.528,0.216 -0.336,0.216 -0.336,0.552 v 5.088 q 0,0.216 0.12,0.384 0.144,0.144 0.312,0.144 h 2.376 q 0.696,0 0.96,-0.24 0.264,-0.264 0.432,-0.936 0.144,-0.528 0.432,-0.528 0.096,0 0.192,0.096 0.12,0.096 0.12,0.288 0,0.096 -0.024,0.432 0,0.336 -0.024,0.696 -0.024,0.36 -0.024,0.552 0,0.24 0,0.648 0.024,0.384 0.024,0.744 0.024,0.36 0.024,0.456 0,0.168 -0.048,0.288 -0.024,0.12 -0.168,0.12 -0.36,0 -0.552,-0.768 -0.144,-0.552 -0.384,-0.816 -0.24,-0.264 -0.72,-0.264 h -2.232 q -0.408,0 -0.624,0.12 -0.192,0.096 -0.192,0.504 v 4.608 q 0,0.912 0.384,1.272 0.384,0.336 1.2,0.336 h 1.776 q 0.768,0 1.272,-0.072 0.528,-0.096 0.912,-0.336 0.384,-0.264 0.672,-0.696 0.312,-0.432 0.696,-1.152 0.072,-0.144 0.168,-0.24 0.096,-0.096 0.216,-0.072 0.12,0.024 0.192,0.12 0.072,0.072 0.072,0.216 0,0.216 -0.12,0.768 -0.12,0.528 -0.312,1.104 -0.168,0.576 -0.312,0.912 -0.072,0.168 -0.144,0.288 -0.048,0.12 -0.192,0.12 -1.152,0 -2.136,-0.024 -0.984,-0.024 -1.872,-0.048 -0.888,-0.024 -1.752,-0.048 -0.84,-0.024 -1.752,-0.024 -0.528,0 -0.912,0.024 -0.384,0.048 -0.792,0.072 -0.408,0.048 -1.056,0.048 z" />
    <path
       id="path904"
       style="font-style:normal;font-variant:normal;font-weight:normal;font-stretch:normal;font-size:24px;font-family:'EB Garamond';-inkscape-font-specification:'EB Garamond';fill:#ff0000"
       d="m 75.487969,-24.019883 q -0.312,0 -0.504,-0.096 -0.168,-0.072 -0.168,-0.192 0,-0.216 0.216,-0.288 0.24,-0.096 0.312,-0.12 0.936,-0.192 1.44,-0.552 0.504,-0.384 0.504,-1.176 v -11.136 q 0,-0.576 -0.12,-0.84 -0.12,-0.288 -0.432,-0.408 -0.312,-0.144 -0.912,-0.24 -0.792,-0.144 -0.792,-0.48 0,-0.144 0.192,-0.192 0.192,-0.072 0.504,-0.072 0.648,0 1.032,0.024 0.408,0.024 0.768,0.048 0.36,0 0.888,0 0.6,0 1.032,0 0.432,-0.024 0.888,-0.048 0.456,-0.024 1.104,-0.024 0.312,0 0.504,0.072 0.192,0.048 0.192,0.192 0,0.168 -0.192,0.288 -0.192,0.12 -0.6,0.192 -0.888,0.168 -1.512,0.408 -0.624,0.216 -0.624,0.912 v 11.304 q 0,0.744 0.336,1.104 0.336,0.36 1.512,0.36 h 2.976 q 0.648,0 1.128,-0.192 0.504,-0.216 0.744,-0.432 0.48,-0.408 0.696,-0.72 0.24,-0.336 0.552,-0.984 0.048,-0.144 0.192,-0.432 0.168,-0.288 0.336,-0.288 0.144,0 0.216,0.144 0.072,0.144 0.072,0.288 0,0.024 -0.024,0.072 0,0.024 0,0.048 -0.168,0.624 -0.312,1.128 -0.12,0.504 -0.216,0.96 -0.072,0.456 -0.12,0.96 -0.024,0.168 -0.096,0.288 -0.048,0.12 -0.24,0.12 -1.2,0 -2.304,-0.024 -1.104,-0.024 -2.136,-0.048 -1.008,0 -1.944,-0.024 -0.936,-0.024 -1.848,-0.024 -0.6,0 -1.368,0.024 -0.744,0.024 -1.32,0.048 -0.552,0.048 -0.552,0.048 z" />
    <path
       id="path906"
       style="font-style:normal;font-variant:normal;font-weight:normal;font-stretch:normal;font-size:24px;font-family:'EB Garamond';-inkscape-font-specification:'EB Garamond';fill:#ff0000"
       d="m 93.079594,-23.755883 q -1.008,0 -1.872,-0.312 -0.84,-0.288 -1.512,-0.84 -0.096,-0.096 -0.192,-0.216 -0.072,-0.12 -0.12,-0.264 -0.12,-0.48 -0.168,-1.248 -0.024,-0.768 -0.072,-1.272 0,-0.168 0.144,-0.24 0.144,-0.096 0.336,-0.096 0.12,0 0.24,0.072 0.12,0.048 0.144,0.192 0.48,1.848 1.416,2.64 0.96,0.792 1.992,0.792 0.84,0 1.488,-0.36 0.648,-0.36 1.008,-1.008 0.384,-0.672 0.384,-1.56 0,-0.984 -0.336,-1.584 -0.312,-0.624 -0.912,-1.08 -0.6,-0.456 -1.464,-0.984 -0.936,-0.6 -1.848,-1.2 -0.912,-0.624 -1.512,-1.416 -0.6,-0.816 -0.6,-1.968 0,-1.224 0.552,-2.208 0.552,-0.984 1.656,-1.56 1.128,-0.6 2.808,-0.6 0.864,0 1.488,0.192 0.648,0.168 1.032,0.336 0.192,0.072 0.312,0.24 0.144,0.168 0.192,0.36 0.144,0.504 0.312,1.152 0.168,0.648 0.168,1.224 0,0.264 -0.36,0.264 -0.216,0 -0.432,-0.096 -0.192,-0.096 -0.24,-0.24 -0.504,-1.272 -1.176,-1.944 -0.672,-0.672 -1.704,-0.672 -0.72,0 -1.344,0.264 -0.624,0.264 -1.032,0.864 -0.384,0.6 -0.384,1.608 0,0.72 0.456,1.32 0.48,0.576 1.248,1.104 0.768,0.528 1.656,1.08 0.84,0.504 1.632,1.104 0.816,0.6 1.32,1.44 0.528,0.816 0.528,2.016 0,1.416 -0.648,2.496 -0.648,1.056 -1.824,1.632 -1.176,0.576 -2.76,0.576 z" />
    <path
       id="path908"
       style="font-style:normal;font-variant:normal;font-weight:normal;font-stretch:normal;font-size:24px;font-family:'EB Garamond';-inkscape-font-specification:'EB Garamond';fill:#ff0000"
       d="m 102.09984,-23.803883 q -0.528,0 -0.936,-0.384 -0.384,-0.408 -0.384,-0.936 0,-0.552 0.384,-0.936 0.408,-0.384 0.936,-0.384 0.552,0 0.936,0.384 0.384,0.384 0.384,0.936 0,0.528 -0.384,0.936 -0.384,0.384 -0.936,0.384 z" />
    <path
       id="path910"
       style="font-style:italic;font-variant:normal;font-weight:normal;font-stretch:normal;font-size:24px;font-family:'EB Garamond';-inkscape-font-specification:'EB Garamond Italic';fill:#ff0000"
       d="m 117.57234,-23.803883 q -0.984,0 -2.04,-0.408 -1.056,-0.432 -1.968,-1.224 -0.912,-0.816 -1.488,-1.944 -0.552,-1.128 -0.552,-2.52 0,-2.16 0.768,-4.008 0.792,-1.848 2.16,-3.24 1.368,-1.392 3.12,-2.16 1.776,-0.792 3.72,-0.792 0.672,0 1.32,0.12 0.672,0.096 1.344,0.336 0.456,0.144 0.792,0.264 0.336,0.12 0.576,0.12 0.12,0 0.24,-0.048 0.12,-0.072 0.264,-0.144 0.144,-0.048 0.288,-0.096 0.144,-0.072 0.264,-0.072 0.216,0 0.216,0.144 0.024,0.144 -0.048,0.24 -0.264,0.36 -0.6,0.96 -0.336,0.6 -0.624,1.248 -0.264,0.648 -0.384,1.2 -0.024,0.168 -0.168,0.336 -0.144,0.144 -0.264,0.144 -0.216,0 -0.312,-0.192 -0.072,-0.216 -0.048,-0.432 0.12,-0.552 0.072,-1.104 -0.024,-0.576 -0.432,-1.104 -0.408,-0.528 -1.08,-0.84 -0.648,-0.336 -1.488,-0.336 -1.032,0 -2.112,0.48 -1.08,0.48 -2.064,1.368 -0.96,0.864 -1.752,2.064 -0.768,1.2 -1.224,2.664 -0.432,1.44 -0.432,3.072 0,1.464 0.408,2.448 0.432,0.984 1.104,1.584 0.696,0.6 1.488,0.864 0.816,0.264 1.584,0.264 1.224,0 1.992,-0.384 0.768,-0.408 1.296,-1.056 0.528,-0.672 1.008,-1.488 0.12,-0.192 0.24,-0.312 0.12,-0.144 0.312,-0.144 0.12,0 0.144,0.12 0.024,0.12 0.024,0.36 0,0.168 -0.216,0.744 -0.216,0.552 -0.528,1.2 -0.312,0.648 -0.6,1.128 -0.264,0.456 -0.384,0.456 -0.096,0 -0.216,-0.096 -0.12,-0.072 -0.24,-0.168 -0.096,-0.096 -0.24,-0.144 -0.12,-0.072 -0.264,-0.072 -0.168,0 -0.408,0.072 -0.24,0.072 -0.576,0.192 -0.36,0.12 -0.864,0.216 -0.504,0.12 -1.128,0.12 z" />
    <path
       id="path912"
       style="font-style:italic;font-variant:normal;font-weight:normal;font-stretch:normal;font-size:24px;font-family:'EB Garamond';-inkscape-font-specification:'EB Garamond Italic';fill:#ff0000"
       d="m 127.38497,-23.803883 q -0.576,0 -1.08,-0.384 -0.504,-0.384 -0.816,-1.008 -0.288,-0.624 -0.288,-1.32 0,-1.128 0.432,-2.424 0.456,-1.32 1.248,-2.472 0.792,-1.176 1.824,-1.92 1.056,-0.744 2.256,-0.744 1.2,0 1.848,0.816 0.672,0.816 0.672,2.016 0,1.08 -0.432,2.376 -0.432,1.272 -1.248,2.424 -0.792,1.152 -1.92,1.896 -1.104,0.744 -2.496,0.744 z m 0.384,-0.72 q 0.576,0 1.152,-0.504 0.6,-0.504 1.128,-1.32 0.552,-0.816 0.96,-1.8 0.432,-0.984 0.672,-1.968 0.264,-0.984 0.264,-1.8 0,-0.624 -0.216,-1.032 -0.192,-0.408 -0.816,-0.408 -0.552,0 -1.152,0.456 -0.576,0.456 -1.128,1.224 -0.528,0.768 -0.96,1.728 -0.432,0.936 -0.696,1.968 -0.24,1.008 -0.24,1.968 0,0.792 0.264,1.152 0.288,0.336 0.768,0.336 z" />
    <path
       id="path914"
       style="font-style:italic;font-variant:normal;font-weight:normal;font-stretch:normal;font-size:24px;font-family:'EB Garamond';-inkscape-font-specification:'EB Garamond Italic';fill:#ff0000"
       d="m 134.80884,-23.803883 q -0.312,0 -0.696,-0.336 -0.384,-0.336 -0.384,-0.72 0,-0.144 0.048,-0.288 l 4.56,-12.984 q 0.12,-0.336 0.168,-0.648 0.072,-0.312 0.072,-0.624 0,-0.216 -0.24,-0.408 -0.216,-0.192 -0.552,-0.264 -0.24,-0.048 -0.384,-0.12 -0.144,-0.096 -0.144,-0.192 0,-0.072 0,-0.12 0.024,-0.048 0.048,-0.096 0.048,-0.048 0.096,-0.048 0.456,-0.12 1.104,-0.216 0.648,-0.12 1.2,-0.192 0.576,-0.096 0.768,-0.096 0.12,0 0.192,0.096 0.096,0.072 0.096,0.264 0,0.144 -0.048,0.336 -0.048,0.168 -0.096,0.336 l -4.848,13.824 q -0.072,0.192 -0.096,0.384 -0.024,0.168 -0.024,0.312 0,0.384 0.24,0.384 0.336,0 0.816,-0.36 0.504,-0.384 0.984,-0.912 0.48,-0.528 0.768,-0.936 0.144,-0.192 0.336,-0.36 0.192,-0.192 0.288,-0.192 0.096,0 0.096,0.096 0.024,0.072 0.024,0.216 0,0.48 -0.336,1.008 -0.312,0.528 -0.84,1.056 -0.528,0.504 -1.128,0.912 -0.6,0.408 -1.152,0.648 -0.552,0.24 -0.936,0.24 z" />
    <path
       id="path916"
       style="font-style:italic;font-variant:normal;font-weight:normal;font-stretch:normal;font-size:24px;font-family:'EB Garamond';-inkscape-font-specification:'EB Garamond Italic';fill:#ff0000"
       d="m 142.90059,-23.803883 q -0.576,0 -1.08,-0.384 -0.504,-0.384 -0.816,-1.008 -0.288,-0.624 -0.288,-1.32 0,-1.128 0.432,-2.424 0.456,-1.32 1.248,-2.472 0.792,-1.176 1.824,-1.92 1.056,-0.744 2.256,-0.744 1.2,0 1.848,0.816 0.672,0.816 0.672,2.016 0,1.08 -0.432,2.376 -0.432,1.272 -1.248,2.424 -0.792,1.152 -1.92,1.896 -1.104,0.744 -2.496,0.744 z m 0.384,-0.72 q 0.576,0 1.152,-0.504 0.6,-0.504 1.128,-1.32 0.552,-0.816 0.96,-1.8 0.432,-0.984 0.672,-1.968 0.264,-0.984 0.264,-1.8 0,-0.624 -0.216,-1.032 -0.192,-0.408 -0.816,-0.408 -0.552,0 -1.152,0.456 -0.576,0.456 -1.128,1.224 -0.528,0.768 -0.96,1.728 -0.432,0.936 -0.696,1.968 -0.24,1.008 -0.24,1.968 0,0.792 0.264,1.152 0.288,0.336 0.768,0.336 z" />
    <path
       id="path918"
       style="font-style:italic;font-variant:normal;font-weight:normal;font-stretch:normal;font-size:24px;font-family:'EB Garamond';-inkscape-font-specification:'EB Garamond Italic';fill:#ff0000"
       d="m 151.24922,-23.731883 q -0.12,0 -0.216,-0.12 -0.096,-0.12 -0.168,-0.288 -0.048,-0.168 -0.048,-0.312 0,-0.12 0.144,-0.576 0.168,-0.456 0.408,-1.128 l 2.208,-5.784 q 0.12,-0.312 0,-0.528 -0.12,-0.216 -0.408,-0.216 -0.36,0 -0.768,0.168 -0.384,0.168 -0.96,0.936 -0.096,0.096 -0.216,0.096 -0.096,-0.024 -0.144,-0.192 0,-0.144 0.048,-0.36 0.048,-0.24 0.144,-0.48 0.12,-0.24 0.216,-0.36 0.408,-0.504 0.984,-0.84 0.576,-0.336 1.392,-0.36 0.336,0 0.648,0.12 0.336,0.096 0.48,0.384 0.168,0.288 -0.024,0.792 l -1.368,3.552 q -0.072,0.168 0.024,0.192 0.12,0.024 0.192,-0.096 1.032,-1.584 1.968,-2.688 0.96,-1.104 1.824,-1.68 0.888,-0.576 1.656,-0.576 0.456,0 0.816,0.264 0.384,0.264 0.504,0.792 0.144,0.504 -0.12,1.272 l -0.864,2.52 q -0.072,0.168 0.024,0.192 0.12,0.024 0.192,-0.096 1.008,-1.656 1.968,-2.736 0.984,-1.104 1.896,-1.656 0.912,-0.552 1.68,-0.552 0.456,0 0.816,0.288 0.36,0.288 0.456,0.864 0.12,0.552 -0.216,1.392 l -2.064,5.328 q -0.36,0.864 0.12,0.864 0.288,0 0.696,-0.264 0.408,-0.264 0.816,-0.624 0.432,-0.36 0.744,-0.648 0.312,-0.312 0.408,-0.408 0.024,-0.024 0.024,-0.024 0.024,0 0.048,0 0.072,0 0.12,0.072 0.072,0.048 0.072,0.144 0,0.192 -0.096,0.408 -0.072,0.192 -0.336,0.456 -0.792,0.888 -1.776,1.656 -0.984,0.768 -2.112,0.768 -0.192,0 -0.408,-0.168 -0.192,-0.144 -0.312,-0.408 -0.096,-0.264 0,-0.528 l 2.784,-7.176 q 0.192,-0.48 -0.024,-0.72 -0.192,-0.24 -0.456,-0.264 -0.384,-0.024 -1.032,0.408 -0.648,0.408 -1.44,1.392 -0.36,0.456 -1.008,1.368 -0.624,0.912 -1.296,1.968 -0.648,1.032 -1.128,1.92 -0.408,0.768 -0.768,1.272 -0.36,0.504 -0.648,0.744 -0.288,0.264 -0.48,0.264 -0.12,0 -0.216,-0.12 -0.096,-0.096 -0.168,-0.24 -0.048,-0.144 -0.048,-0.288 0,-0.12 0.144,-0.6 0.168,-0.504 0.408,-1.176 l 2.232,-6 q 0.216,-0.552 -0.048,-0.744 -0.264,-0.216 -0.432,-0.24 -0.384,-0.048 -1.032,0.408 -0.648,0.432 -1.44,1.416 -0.288,0.336 -0.72,0.96 -0.432,0.624 -0.936,1.392 -0.48,0.744 -0.96,1.536 -0.456,0.768 -0.816,1.416 -0.624,1.152 -0.96,1.728 -0.336,0.552 -0.624,0.552 z" />
    <path
       id="path920"
       style="font-style:italic;font-variant:normal;font-weight:normal;font-stretch:normal;font-size:24px;font-family:'EB Garamond';-inkscape-font-specification:'EB Garamond Italic';fill:#ff0000"
       d="m 171.18197,-23.947883 q -0.936,0 -1.488,-0.528 -0.552,-0.552 -0.552,-1.44 0,-0.6 0.144,-1.344 0.144,-0.768 0.408,-1.56 l 3.024,-9.144 q 0.12,-0.336 0.168,-0.648 0.072,-0.336 0.072,-0.648 0,-0.12 -0.144,-0.216 -0.12,-0.096 -0.456,-0.192 -0.744,-0.192 -0.744,-0.36 0,-0.12 0.072,-0.192 0.096,-0.072 0.312,-0.144 0.264,-0.096 0.672,-0.216 0.432,-0.144 0.864,-0.264 0.432,-0.12 0.768,-0.192 0.36,-0.072 0.456,-0.072 0.384,0 0.384,0.24 0,0.216 -0.048,0.384 -0.024,0.144 -0.12,0.408 -0.192,0.48 -0.528,1.44 -0.336,0.936 -0.744,2.112 -0.384,1.152 -0.792,2.352 -0.408,1.176 -0.768,2.208 -0.336,1.032 -0.528,1.656 -0.096,0.24 0,0.288 0.12,0.048 0.288,-0.168 1.416,-1.872 2.688,-2.88 1.272,-1.008 2.16,-1.008 0.768,0 1.272,0.504 0.504,0.504 0.504,1.272 0,1.104 -0.456,2.28 -0.432,1.152 -1.2,2.256 -0.744,1.08 -1.704,1.944 -0.96,0.864 -1.992,1.368 -1.008,0.504 -1.992,0.504 z m 0.624,-0.768 q 0.312,0 0.816,-0.336 0.504,-0.336 1.08,-0.912 0.6,-0.6 1.152,-1.344 0.576,-0.768 1.056,-1.68 0.48,-0.936 0.744,-1.776 0.288,-0.864 0.288,-1.44 0,-0.408 -0.216,-0.672 -0.192,-0.288 -0.48,-0.288 -0.744,0 -1.704,0.84 -0.96,0.84 -2.232,2.568 -0.792,1.104 -1.272,2.04 -0.48,0.936 -0.48,1.392 0,0.648 0.36,1.128 0.384,0.48 0.888,0.48 z" />
    <path
       id="path922"
       style="font-style:italic;font-variant:normal;font-weight:normal;font-stretch:normal;font-size:24px;font-family:'EB Garamond';-inkscape-font-specification:'EB Garamond Italic';fill:#ff0000"
       d="m 180.28322,-23.803883 q -0.408,0 -0.672,-0.264 -0.264,-0.264 -0.264,-0.552 0,-0.096 0,-0.192 0.024,-0.096 0.072,-0.192 0.984,-1.992 1.656,-3.744 0.672,-1.776 1.2,-3.096 0.096,-0.288 -0.12,-0.288 -0.12,0 -0.48,0.144 -0.336,0.12 -0.72,0.336 -0.384,0.216 -0.672,0.432 -0.12,0.096 -0.24,0.048 -0.12,-0.048 -0.12,-0.168 0,-0.12 0.168,-0.336 0.192,-0.24 0.504,-0.528 0.336,-0.288 0.792,-0.6 0.456,-0.336 0.984,-0.648 0.552,-0.336 1.152,-0.6 0.216,-0.096 0.432,0.048 0.216,0.144 0.336,0.36 0.144,0.216 0.096,0.336 l -2.928,6.936 q -0.096,0.192 -0.144,0.384 -0.024,0.168 -0.024,0.312 0,0.168 0.12,0.24 0.144,0.048 0.264,0.048 0.336,0 0.768,-0.312 0.432,-0.336 0.912,-0.792 0.504,-0.48 0.96,-0.936 0.048,-0.048 0.096,-0.048 0.048,0 0.096,0.048 0.048,0.024 0.048,0.072 0,0.384 -0.456,0.984 -0.456,0.576 -1.152,1.176 -0.672,0.576 -1.392,0.984 -0.72,0.408 -1.272,0.408 z m 4.848,-12.648 q -0.36,0 -0.6,-0.288 -0.24,-0.288 -0.24,-0.648 0,-0.576 0.384,-1.008 0.384,-0.456 0.96,-0.456 0.384,0 0.6,0.336 0.216,0.312 0.216,0.696 0,0.528 -0.384,0.96 -0.384,0.408 -0.936,0.408 z" />
    <path
       id="path924"
       style="font-style:italic;font-variant:normal;font-weight:normal;font-stretch:normal;font-size:24px;font-family:'EB Garamond';-inkscape-font-specification:'EB Garamond Italic';fill:#ff0000"
       d="m 186.85734,-23.803883 q -0.288,0 -0.576,-0.168 -0.288,-0.144 -0.48,-0.384 -0.168,-0.24 -0.168,-0.504 0,-0.864 0.576,-1.992 0.576,-1.152 1.608,-2.4 1.032,-1.272 2.376,-2.448 1.296,-1.128 2.112,-1.68 0.816,-0.576 1.2,-0.576 0.384,0 0.672,0.336 0.336,0.432 0.288,0.408 -0.024,-0.048 0,-0.048 0.048,0 0.072,-0.024 0.048,-0.048 0.072,-0.12 0.336,-0.576 0.408,-0.696 0.072,-0.12 0,-0.024 0.144,-0.24 0.288,-0.24 0.216,0 0.432,0.072 0.216,0.072 0.336,0.192 0.144,0.12 0.144,0.24 0,0.12 -0.168,0.6 l -2.688,7.128 q -0.312,0.816 0.312,0.816 0.432,0 1.032,-0.408 0.624,-0.432 1.08,-1.032 0.048,-0.048 0.096,-0.072 0.072,-0.048 0.12,-0.048 0.096,0 0.12,0.072 0.048,0.048 0.048,0.192 0,0.168 -0.336,0.672 -0.336,0.48 -0.696,0.84 -0.672,0.624 -1.368,0.96 -0.672,0.336 -1.248,0.336 -0.24,0 -0.48,-0.144 -0.24,-0.144 -0.408,-0.36 -0.144,-0.216 -0.144,-0.432 0,-0.264 0.144,-0.552 -0.096,0.216 -0.024,0 0.096,-0.216 0.288,-0.672 0.216,-0.456 0.456,-0.96 0.24,-0.504 0.408,-0.888 0.12,-0.264 0.096,-0.384 0,-0.144 -0.144,0.024 -1.464,1.632 -2.52,2.592 -1.032,0.96 -1.824,1.368 -0.792,0.408 -1.512,0.408 z m 1.344,-1.512 q 0.528,0 1.56,-0.864 1.056,-0.888 2.376,-2.448 0.912,-1.056 1.44,-1.944 0.528,-0.888 0.528,-1.32 0,-0.192 -0.312,-0.456 -0.144,-0.12 -0.312,-0.192 -0.168,-0.072 -0.288,-0.072 -0.432,0 -1.2,0.432 -0.744,0.432 -1.368,1.032 -0.792,0.768 -1.512,1.728 -0.72,0.96 -1.176,1.848 -0.432,0.888 -0.432,1.44 0,0.36 0.192,0.6 0.192,0.216 0.504,0.216 z" />
    <path
       id="path926"
       style="font-style:italic;font-variant:normal;font-weight:normal;font-stretch:normal;font-size:24px;font-family:'EB Garamond';-inkscape-font-specification:'EB Garamond Italic';fill:#ff0000"
       d="m 198.71897,-23.803883 q -0.456,0 -0.768,-0.36 -0.312,-0.384 -0.312,-0.84 0,-0.432 0.216,-0.792 0.216,-0.36 0.552,-0.552 0.36,-0.216 0.792,-0.216 0.48,0 0.768,0.36 0.312,0.36 0.312,0.84 0,0.432 -0.216,0.792 -0.192,0.336 -0.552,0.552 -0.36,0.216 -0.792,0.216 z" />
  </g>
</svg>
